# xmcd
#
# Track frame offsets: 
#        150
#        12960
#        24872
#        36604
#        47374
#        59238
#        71620
#        84936
#        95768
#        106731
#        118214
#        128088
#        138837
#        148891
#        159164
#        167494
#        177272
#        187927
#        199266
#
# Disc length: 2828 seconds
#
# Revision: 3
# Processed by: cddbd v1.5.2PL0 Copyright (c) Steve Scherf et al.
# Submitted via: ExactAudioCopyFreeDBPlugin 1.0
#
DISCID=030b0a13
DTITLE=Various Artist - Night Train to Nashville:  Music City Rhythm 
DTITLE=& Blues, 1945-1970
DYEAR=2005
DGENRE=Rhythm and Blues
TTITLE0=Jimmy Sweeney - Boogie Woogie Jockey
TTITLE1=Richard Armstrong - Gene Nobles' Boogie
TTITLE2=Ivory Joe Hunter - All States Boogie
TTITLE3=Ivory Joe Hunter - Wail Daddy (ft Willie Lee Patton and Orchestr
TTITLE3=a)
TTITLE4=Billie McAllister - 31 E. Blues
TTITLE5=Gay Crosse and the Good Humor Six - No Better for You
TTITLE6=Helen Foster - You Belong to Me
TTITLE7=Bernard Hardison - Too Much
TTITLE8=Gene Allison - If Things Don't Change
TTITLE9=Ted Jarrett - Love, Love, Love
TTITLE10=Lillian Offitt - Miss You So
TTITLE11=The Gladiolas - Little Darlin'
TTITLE12=Charles Walker and the Daffodils - No Fool No More
TTITLE13=The Kinglets - Pretty Please (ft Leroy Thomas)
TTITLE14=Little Ike - She Can Rock
TTITLE15=The Neptunes - I'm Coming Home
TTITLE16=Hal and Jean - You Better Change
TTITLE17=Freddie North - OK, So What?
TTITLE18=Jimmy Bell (Jimmy Sweeney) - She Wears My Ring
EXTD=2CD: UMG/CMF [Country Music Foundation]/Lost Highway B0005228-02 
EXTD=(2005-09-20), UPC 022111002629, BMG D204317.
EXTT0=
EXTT1=
EXTT2=
EXTT3=
EXTT4=
EXTT5=
EXTT6=
EXTT7=
EXTT8=
EXTT9=
EXTT10=
EXTT11=
EXTT12=
EXTT13=
EXTT14=
EXTT15=
EXTT16=
EXTT17=
EXTT18=
PLAYORDER=
